<?xml version="1.0" encoding="UTF-8"?>
<!DOCTYPE svg PUBLIC "-//W3C//DTD SVG 1.1//EN" "http://www.w3.org/Graphics/SVG/1.1/DTD/svg11.dtd">
<!-- Creator: CorelDRAW X8 -->
<svg xmlns="http://www.w3.org/2000/svg" xml:space="preserve" width="150.001mm" height="71.1253mm" version="1.1" style="shape-rendering:geometricPrecision; text-rendering:geometricPrecision; image-rendering:optimizeQuality; fill-rule:evenodd; clip-rule:evenodd"
viewBox="0 0 15000 7113"
 xmlns:xlink="http://www.w3.org/1999/xlink">
 <defs>
  <style type="text/css">
   <![CDATA[
    .fil1 {fill:#03A358}
    .fil2 {fill:#FEFEFE}
    .fil0 {fill:#FF8229}
   ]]>
  </style>
 </defs>
 <g id="Capa_x0020_1">
  <metadata id="CorelCorpID_0Corel-Layer"/>
  <g id="_907494800">
   <polygon class="fil0" points="3,0 0,7003 7565,5805 12063,5575 15000,4935 15000,0 "/>
   <polygon class="fil1" points="12055,5240 7890,5485 3028,6130 558,6188 558,7113 558,7113 3255,6885 6163,6333 10950,5870 14565,5373 14558,4648 "/>
   <g>
    <path class="fil2" d="M9673 1988c10,-195 337,-300 447,-323 20,-5 33,13 33,25l0 540c0,35 25,45 52,43l315 -35c0,30 18,372 -272,405 -53,7 -50,7 -70,27 -30,30 -25,43 -25,105 0,353 0,1320 -3,1383 -10,195 -330,242 -440,265 -20,5 -40,-13 -40,-25l0 -1585c0,-58 -35,-100 -95,-90 -42,5 -145,12 -180,12 10,-225 25,-347 183,-385 45,-10 67,-10 77,-25 10,-12 15,-47 15,-70 0,-92 0,-257 3,-267z"/>
    <path class="fil2" d="M6148 3980c7,-762 -383,-482 -575,-427l0 1095c-18,257 -478,277 -478,277l0 -1480c-2,-217 -47,-322 -47,-322 57,2 240,-93 415,37 52,-60 280,-155 515,-172 130,-13 352,-10 515,90 52,-60 157,-168 545,-198 282,-20 610,168 642,485 3,38 0,1068 0,1068 0,250 -475,277 -475,277l0 -830c0,-752 -330,-517 -560,-425l0 1085c-17,258 -497,280 -497,280l0 -840z"/>
    <path class="fil2" d="M13163 2185c12,35 17,105 17,133 -5,475 -462,332 -482,552 -15,170 0,628 0,628 -5,490 30,530 -408,610 -7,2 -17,-3 -25,-10 -10,-10 -10,-18 -12,-35 2,-200 2,-940 -65,-1475 -28,-218 -58,-325 -58,-325 100,-33 208,-8 233,-8 45,5 135,60 147,60 45,5 175,-125 460,-150 3,3 170,18 193,20z"/>
    <g>
     <path class="fil2" d="M12025 3810c-222,55 -645,-5 -812,-105 97,-87 747,-690 780,-1095 22,-260 -375,-270 -403,-270 -345,-7 -1062,75 -1172,600 -85,400 277,1258 980,1273 242,5 512,-230 637,-378 3,-2 5,-7 5,-10 3,-7 0,-17 -15,-15l0 0zm-995 -232c-122,-95 -305,-355 -305,-495 3,-253 720,-493 713,-135 -3,152 -290,552 -408,630z"/>
    </g>
    <g>
     <path class="fil2" d="M9400 4138c-222,55 -645,-5 -812,-105 97,-88 747,-690 780,-1095 22,-260 -375,-270 -403,-270 -345,-8 -1062,75 -1172,600 -85,400 277,1257 980,1272 242,5 512,-230 637,-377 3,-3 5,-8 8,-10 2,-8 -3,-18 -18,-15l0 0zm-992 -233c-123,-95 -305,-355 -305,-495 2,-252 720,-492 712,-135 -2,155 -290,553 -407,630z"/>
    </g>
    <g>
     <path class="fil2" d="M4973 4643c-223,55 -645,-5 -813,-105 98,-88 748,-690 780,-1095 20,-260 -375,-270 -402,-270 -345,-8 -1063,75 -1173,600 -82,390 258,1210 923,1270l115 0c227,-28 465,-238 580,-375 2,-3 5,-8 5,-10 2,-8 -3,-18 -15,-15l0 0zm-995 -233c-123,-95 -305,-355 -305,-495 2,-252 720,-492 712,-135 -2,155 -290,553 -407,630z"/>
    </g>
    <g>
     <path class="fil2" d="M3283 1718c-43,0 -783,15 -910,245 -115,205 0,345 145,1347 -398,45 -1240,295 -1273,820 -7,113 35,248 113,383l0 0 5 10c2,5 7,12 10,17 5,8 10,18 15,25l12 18 0 0c228,337 670,672 1135,740 103,15 413,20 533,-265 27,-45 55,-238 80,-508l0 -5c0,-2 0,-2 0,-5 0,-2 0,-2 0,-5l0 -5c80,-850 145,-2432 157,-2702 8,-28 -2,-113 -22,-110l0 0zm-585 2952c-3,188 -125,155 -215,140 -150,-22 -380,-102 -560,-240l-63 -52c-50,-45 -95,-98 -127,-155 -110,-185 395,-468 680,-575 92,-35 157,-53 200,72 35,163 50,265 67,435 8,90 15,170 18,243l0 2c0,45 2,90 0,130z"/>
    </g>
   </g>
  </g>
 </g>
</svg>
