<svg id="icon__eu_ecology" xmlns="http://www.w3.org/2000/svg" width="24" height="16" viewBox="0 0 24 16">
  <path id="Path_2878" data-name="Path 2878" d="M2.058-12.83h24v16h-24Z" transform="translate(-2.058 12.83)" fill="#8dc63f"/>
  <path id="Path_6486" data-name="Path 6486" d="M21045.359,23928.881a6.079,6.079,0,0,0,.17-.607c.023-.09.07-.191-.078-.215-.187-.037-.217-.043-.355-.066s-.1-.084-.029-.127c.2-.137.264-.18.582-.4a.5.5,0,0,0,.217-.293c.09-.271.131-.451.223-.752.023-.09.084-.1.107-.035.066.211.119.336.2.553.02.066.121.066.26-.043a24.566,24.566,0,0,1,3.674-2.516,17.444,17.444,0,0,1,5.021-1.9c.131-.006.113.049.006.078a18.351,18.351,0,0,0-5.068,2.115,18.092,18.092,0,0,0-3.561,2.791.273.273,0,0,0-.049.277c.078.223.055.186.162.443.035.09.035.156-.1.127-.307-.055-.336-.061-.553-.1-.09-.014-.168.084-.252.174-.223.229-.295.307-.506.527-.031.033-.055.049-.068.049S21045.348,23928.928,21045.359,23928.881Zm4.037-.666c.1-.246.143-.367.24-.6a.168.168,0,0,0-.049-.209c-.18-.121-.27-.182-.457-.289-.059-.035-.041-.072.037-.084.24-.029.359-.043.6-.061a.254.254,0,0,0,.193-.145c.09-.221.137-.33.221-.539.031-.066.066-.066.086,0,.053.2.078.307.137.516a.175.175,0,0,0,.168.127,3.074,3.074,0,0,1,.57.018c.078.006.084.041.02.078a5.413,5.413,0,0,0-.486.318.23.23,0,0,0-.092.217c.049.227.072.342.121.582.018.078-.018.107-.072.055-.174-.145-.258-.217-.432-.35a.194.194,0,0,0-.229.012c-.205.156-.3.234-.51.4a.125.125,0,0,1-.061.029C21049.379,23928.291,21049.377,23928.264,21049.4,23928.215Zm4.486,0c-.182-.162-.271-.24-.445-.408a.231.231,0,0,0-.211-.061c-.168.072-.258.113-.432.2-.061.025-.09-.006-.066-.064.066-.187.1-.277.168-.451a.227.227,0,0,0-.066-.205c-.174-.174-.258-.258-.426-.432-.055-.055-.041-.084.023-.061.211.066.318.1.523.168a.129.129,0,0,0,.162-.059c.061-.168.09-.246.15-.408.018-.049.055-.037.072.029.066.2.1.307.174.51a.282.282,0,0,0,.162.162c.211.066.318.1.527.168.066.025.078.055.031.072-.168.055-.252.084-.42.145a.125.125,0,0,0-.055.162c.072.2.113.3.191.51.014.039.01.059-.008.059A.1.1,0,0,1,21053.883,23928.215Zm2.779-.811a5.344,5.344,0,0,1-.516-.4.285.285,0,0,0-.217-.078c-.174.059-.258.084-.432.137-.055.02-.084-.012-.072-.064.053-.17.078-.254.131-.416a.247.247,0,0,0-.084-.209c-.191-.187-.287-.283-.475-.469-.059-.061-.047-.09.025-.061l.553.223c.072.023.148.006.162-.049.053-.162.084-.24.137-.408.02-.047.055-.035.084.031.078.215.121.318.211.533a.317.317,0,0,0,.186.168,4.483,4.483,0,0,0,.59.145c.078.012.1.043.035.066-.186.072-.27.107-.449.18a.112.112,0,0,0-.049.156c.1.2.145.295.246.492.018.035.014.057,0,.057A.12.12,0,0,1,21056.662,23927.4Zm1.754-1.844c-.18-.1-.27-.15-.445-.26a.219.219,0,0,0-.2-.029c-.156.072-.234.107-.391.174-.047.02-.078,0-.061-.047.049-.145.072-.217.127-.361a.162.162,0,0,0-.072-.162c-.168-.139-.252-.217-.414-.359-.055-.043-.043-.066.018-.055.2.049.3.072.5.107a.149.149,0,0,0,.156-.078c.055-.174.084-.258.139-.432.023-.061.055-.055.078.006.066.186.1.277.174.463a.191.191,0,0,0,.168.113,4.258,4.258,0,0,0,.547,0c.072,0,.084.025.029.066-.18.121-.264.18-.437.283a.129.129,0,0,0-.055.156c.078.154.115.232.2.383.016.031.008.049-.014.049A.118.118,0,0,1,21058.416,23925.561Zm-10.461-.637c-.145-.139-.217-.205-.373-.336a.268.268,0,0,0-.246-.014c-.246.109-.373.162-.631.283-.084.041-.113.023-.066-.035.15-.193.229-.289.379-.475a.114.114,0,0,0-.018-.176,3.164,3.164,0,0,0-.469-.252c-.061-.035-.041-.066.055-.072.287-.023.426-.029.689-.029a.314.314,0,0,0,.234-.107c.139-.182.205-.271.336-.451.043-.055.084-.055.092.006.023.186.035.283.059.475.006.061.078.113.15.127.271.035.318.047.588.1.072.012.078.047.008.072-.223.072-.332.113-.559.2a.225.225,0,0,0-.145.168c.006.193.006.289,0,.486,0,.041-.014.064-.035.064A.078.078,0,0,1,21047.955,23924.924Zm10.828-1.7c.053-.176.1-.271.162-.457a.124.124,0,0,0-.049-.156c-.15-.072-.223-.113-.373-.2-.047-.031-.035-.061.025-.066.186-.031.281-.049.475-.1a.257.257,0,0,0,.154-.145c.072-.2.1-.3.176-.506.023-.064.059-.078.072-.018.047.168.078.252.125.414a.122.122,0,0,0,.15.055c.205-.072.307-.107.51-.2.066-.025.078-.006.02.053-.17.18-.254.266-.422.434a.22.22,0,0,0-.066.191c.061.15.086.223.15.361.02.047-.012.076-.064.064a3.832,3.832,0,0,1-.4-.119.2.2,0,0,0-.187.055c-.162.148-.252.221-.4.354-.02.02-.033.027-.045.027S21058.771,23923.256,21058.783,23923.225Zm-10.365-.914c.084-.229.113-.287.186-.469.029-.059-.018-.125-.1-.156-.24-.07-.361-.1-.607-.148-.078-.02-.066-.049.023-.072.318-.066.416-.078.709-.121a.273.273,0,0,0,.205-.125c.059-.182.09-.271.156-.451.018-.055.066-.061.1-.006.1.168.156.252.252.426a.246.246,0,0,0,.211.1c.281-.012.348-.029.629-.041.086-.006.092.023.037.061-.217.143-.283.2-.48.318a.126.126,0,0,0-.061.162c.1.174.139.264.234.449.029.055-.006.072-.072.031a5.831,5.831,0,0,0-.541-.271.292.292,0,0,0-.252.012c-.2.121-.275.162-.545.338a.181.181,0,0,1-.076.031C21048.4,23922.373,21048.4,23922.354,21048.418,23922.311Zm8.93-1.314c.041-.156.064-.24.113-.414a.145.145,0,0,0-.061-.156,4.552,4.552,0,0,1-.371-.295c-.049-.041-.037-.072.018-.066a2.541,2.541,0,0,0,.443.006.158.158,0,0,0,.139-.113c.049-.191.078-.295.133-.5.012-.066.047-.072.061-.012.064.191.1.281.156.461a.15.15,0,0,0,.143.1c.162,0,.266-.008.469-.014.061-.006.078.02.023.061-.148.121-.227.156-.377.277a.173.173,0,0,0-.049.174c.061.168.1.246.156.4.023.053,0,.072-.055.047-.148-.078-.221-.119-.371-.209a.151.151,0,0,0-.174.018c-.139.113-.205.168-.344.275a.069.069,0,0,1-.033.016C21057.348,23921.053,21057.34,23921.033,21057.348,23921Zm-5.033-.133a4.834,4.834,0,0,0-.521-.391.246.246,0,0,0-.234-.041c-.182.078-.271.133-.457.209-.061.031-.1.008-.084-.047.047-.168.072-.27.119-.434a.2.2,0,0,0-.107-.186c-.229-.131-.342-.2-.576-.324-.078-.041-.072-.072.012-.066.264.025.4.037.654.066.084.012.162-.023.174-.084.049-.168.072-.258.115-.432.018-.061.059-.055.1.012.113.2.168.295.275.492a.323.323,0,0,0,.211.145c.24.047.33.066.619.145.084.023.1.059.035.078-.174.064-.27.084-.457.154a.119.119,0,0,0-.047.164c.1.2.15.311.24.521.016.039.014.059,0,.059A.129.129,0,0,1,21052.314,23920.863Zm2.9-.041c-.156-.156-.234-.24-.391-.4a.2.2,0,0,0-.186-.061c-.156.049-.229.072-.379.121-.047.018-.078-.014-.061-.061.049-.139.078-.211.127-.361a.193.193,0,0,0-.066-.18c-.168-.156-.252-.234-.426-.385-.055-.053-.049-.078.018-.059l.512.148a.116.116,0,0,0,.148-.059c.055-.162.084-.246.145-.416.018-.053.049-.047.072.02.072.2.1.307.168.5a.263.263,0,0,0,.162.15c.2.061.3.09.5.145.066.023.078.053.02.078-.162.064-.24.1-.4.156a.128.128,0,0,0-.061.156c.061.191.09.287.15.479.01.035.006.053-.008.053S21055.236,23920.846,21055.215,23920.822Zm5.135-.258c.072-.176.107-.266.186-.445a.1.1,0,0,0-.047-.133c-.15-.041-.223-.072-.373-.125-.041-.018-.029-.049.031-.072.2-.055.293-.084.486-.145a.263.263,0,0,0,.156-.139c.076-.186.113-.275.186-.455.023-.061.053-.066.066-.02.041.15.064.217.113.355.012.047.078.066.139.047.191-.064.281-.1.463-.154.064-.02.07,0,.023.047-.15.133-.229.205-.391.348a.176.176,0,0,0-.061.162c.055.121.084.182.145.295.018.037-.006.061-.061.055-.162-.018-.24-.031-.4-.061a.237.237,0,0,0-.191.072c-.168.15-.246.229-.42.385a.111.111,0,0,1-.053.031C21060.338,23920.613,21060.336,23920.6,21060.35,23920.564Z" transform="translate(-21041 -23916.016)" fill="#fff"/>
</svg>
