<svg id="icon_dk_ecology" xmlns="http://www.w3.org/2000/svg" width="16" height="16" viewBox="0 0 16 16">
  <path id="Path_6485" data-name="Path 6485" d="M5.322,16a.516.516,0,0,1-.482-.8c.151-.284,1.055-1.961,1.219-2.26a.56.56,0,0,1,.663-.284A4.406,4.406,0,0,0,8,12.847,4.729,4.729,0,0,0,12.6,8,4.956,4.956,0,0,0,11.172,4.49a.622.622,0,0,1-.09-.857C11.458,2.949,12.7.643,12.845.368,12.974.133,13.1,0,13.372,0h2.312c.315,0,.389.229.244.495-.272.5-1.139,2.121-1.454,2.7A8.239,8.239,0,0,1,16,8a7.806,7.806,0,0,1-7.6,8ZM.316,16C0,16-.073,15.771.072,15.505c.272-.5,1.139-2.122,1.454-2.7A8.239,8.239,0,0,1,0,8,7.806,7.806,0,0,1,7.6,0h3.083a.516.516,0,0,1,.481.8c-.15.284-1.054,1.961-1.219,2.259a.56.56,0,0,1-.663.285A4.4,4.4,0,0,0,8,3.153,4.729,4.729,0,0,0,3.4,8,4.954,4.954,0,0,0,4.829,11.51a.623.623,0,0,1,.09.857c-.377.683-1.62,2.99-1.763,3.265A.549.549,0,0,1,2.628,16Zm5.112-5.488V9.853h5.146v.659Zm0-.957-.3-.341A4.568,4.568,0,0,1,4.64,8.6,1.366,1.366,0,0,1,5.733,6.4l.052,0c.031-.051.064-.1.1-.156a1.266,1.266,0,0,1,1.345-.5A1.372,1.372,0,0,1,8,6.239a1.367,1.367,0,0,1,.77-.491,1.266,1.266,0,0,1,1.345.5c.038.053.072.105.1.156l.052,0A1.365,1.365,0,0,1,11.367,8.6a4.817,4.817,0,0,1-.492.618l-.294.341Zm4.578-1.443c-.079.1-.389.5-.652.793h.947l.118-.136a4.526,4.526,0,0,0,.433-.538,1.027,1.027,0,0,0,.156-.521.667.667,0,0,0-.586-.646A1.638,1.638,0,0,1,10.011,8.111Zm-1.7-.461c0,.265,0,1.254,0,1.254h.191c.26-.283.838-.964,1.052-1.24a1.473,1.473,0,0,0,.235-.423A3.838,3.838,0,0,1,8.315,7.651Zm-1.824.07c.112.149.751.9,1.01,1.184h.191s0-.988,0-1.254a3.838,3.838,0,0,1-1.478-.409A1.62,1.62,0,0,0,6.491,7.721Zm-1.5-.011a1.015,1.015,0,0,0,.155.521,4.526,4.526,0,0,0,.433.538L5.7,8.9h.947c-.262-.292-.518-.615-.681-.835A1.492,1.492,0,0,1,5.58,7.063.669.669,0,0,0,4.995,7.71ZM8.909,6.382a.76.76,0,0,0-.577.593A.154.154,0,0,0,8.33,7,3.31,3.31,0,0,0,9.6,6.617l0,0a.649.649,0,0,0-.522-.254A.765.765,0,0,0,8.909,6.382ZM6.4,6.615l0,0A3.3,3.3,0,0,0,7.676,7a.154.154,0,0,0,0-.023A.759.759,0,0,0,7.1,6.382a.769.769,0,0,0-.177-.021A.65.65,0,0,0,6.4,6.615ZM7.562,5.252A.438.438,0,1,1,8,5.713.449.449,0,0,1,7.562,5.252Z" fill="#d9000d"/>
</svg>
